<?xml version="1.0" encoding="UTF-8"?> <svg xmlns="http://www.w3.org/2000/svg" width="26" height="27" viewBox="0 0 26 27" fill="none"> <path d="M22.75 11.25C22.75 19.125 13 25.875 13 25.875C13 25.875 3.25 19.125 3.25 11.25C3.25 8.56468 4.27723 5.98935 6.10571 4.09054C7.93419 2.19174 10.4141 1.125 13 1.125C15.5859 1.125 18.0658 2.19174 19.8943 4.09054C21.7228 5.98935 22.75 8.56468 22.75 11.25Z" stroke="#111C34" stroke-width="2.2" stroke-linecap="round" stroke-linejoin="round"></path> <path d="M13 14.625C14.7949 14.625 16.25 13.114 16.25 11.25C16.25 9.38604 14.7949 7.875 13 7.875C11.2051 7.875 9.75 9.38604 9.75 11.25C9.75 13.114 11.2051 14.625 13 14.625Z" stroke="#111C34" stroke-width="2.2" stroke-linecap="round" stroke-linejoin="round"></path> </svg> 