<?xml version="1.0" encoding="UTF-8"?> <svg xmlns="http://www.w3.org/2000/svg" width="26" height="26" viewBox="0 0 26 26" fill="none"> <path d="M23.8331 18.3304V21.5804C23.8343 21.8821 23.7725 22.1808 23.6516 22.4572C23.5307 22.7337 23.3535 22.9818 23.1311 23.1858C22.9088 23.3897 22.6463 23.545 22.3605 23.6417C22.0747 23.7384 21.7719 23.7743 21.4714 23.7471C18.1378 23.3849 14.9356 22.2458 12.1222 20.4213C9.5047 18.758 7.28551 16.5388 5.62222 13.9213C3.79137 11.0951 2.65199 7.87734 2.29639 4.52876C2.26932 4.22919 2.30492 3.92725 2.40093 3.64219C2.49694 3.35713 2.65126 3.09518 2.85405 2.87302C3.05685 2.65086 3.30368 2.47337 3.57883 2.35183C3.85398 2.23029 4.15143 2.16738 4.45222 2.1671H7.70222C8.22797 2.16192 8.73767 2.3481 9.1363 2.69092C9.53493 3.03375 9.79531 3.50983 9.86889 4.03043C10.0061 5.0705 10.2605 6.09172 10.6272 7.0746C10.773 7.46235 10.8045 7.88375 10.7181 8.28888C10.6317 8.69401 10.431 9.06588 10.1397 9.36043L8.76389 10.7363C10.3061 13.4484 12.5517 15.6941 15.2639 17.2363L16.6397 15.8604C16.9343 15.5692 17.3061 15.3684 17.7113 15.282C18.1164 15.1956 18.5378 15.2272 18.9256 15.3729C19.9084 15.7397 20.9297 15.9941 21.9697 16.1313C22.496 16.2055 22.9766 16.4706 23.3201 16.876C23.6637 17.2815 23.8462 17.7991 23.8331 18.3304Z" stroke="#111C34" stroke-width="2" stroke-linecap="round" stroke-linejoin="round"></path> </svg> 