<?xml version="1.0" encoding="UTF-8"?> <svg xmlns="http://www.w3.org/2000/svg" width="26" height="47" viewBox="0 0 26 47" fill="none"> <path fill-rule="evenodd" clip-rule="evenodd" d="M2.31484 0C21.7456 9.7321 33.3502 22.1397 19.7608 44.6675C15.7739 41.5092 9.66327 41.7754 0 46.0526C7.88697 33.1938 12.4602 16.2427 2.31484 0ZM7.40055 5.15706C10.7925 7.50324 13.7674 9.51102 16.0128 11.6406C21.2635 16.6037 23.3525 21.278 23.3004 26.5298C23.2613 30.8521 21.6588 36.5461 18.9226 41.058C16.8119 40.5256 15.0964 39.9842 12.7903 39.9977C10.8011 39.9977 8.36905 40.4489 4.85987 41.649C8.12149 35.1159 10.4754 28.1134 10.5536 20.6373C10.5809 15.3095 9.50557 10.0379 7.40055 5.17962V5.15706Z" fill="#064FC0"></path> </svg> 