<?xml version="1.0" encoding="UTF-8"?> <svg xmlns="http://www.w3.org/2000/svg" width="66" height="66" viewBox="0 0 66 66" fill="none"> <path d="M29.4321 27.0701C29.4321 26.5242 29.8753 26.0811 30.4212 26.0811C30.9671 26.0811 31.4103 26.5242 31.4103 27.0701C31.4103 27.616 30.9671 28.0592 30.4212 28.0592C29.8753 28.0592 29.4321 27.616 29.4321 27.0701Z" fill="#111C34"></path> <path d="M12.4123 45.6748C12.4123 45.6748 12.4123 45.6748 12.4123 45.6748V45.6748Z" fill="#111C34"></path> <path fill-rule="evenodd" clip-rule="evenodd" d="M50.955 44.5524C50.7808 44.2381 50.7907 43.8667 50.9813 43.5616L57.4266 33.2492C57.6075 32.9599 57.9243 32.7843 58.2653 32.7843C58.6063 32.7843 58.9233 32.96 59.1041 33.2492L65.5494 43.5617C65.7399 43.8665 65.75 44.2508 65.5757 44.5652C65.4014 44.8797 65.0703 45.0748 64.7107 45.0748H61.7745L61.7073 45.2826C57.8565 57.2 45.9957 65.6998 32.9997 65.6998C20.0043 65.6998 8.14318 57.2005 4.29211 45.2826L4.22497 45.0748H1.28878C0.929157 45.0748 0.598033 44.8797 0.423757 44.5652C0.24951 44.2509 0.259597 43.8666 0.450087 43.5616L6.89537 33.2492C7.0762 32.9599 7.39309 32.7843 7.73409 32.7843C8.07509 32.7843 8.392 32.96 8.57284 33.2492L15.0181 43.5617C15.2086 43.8665 15.2188 44.2508 15.0444 44.5652C14.8702 44.8797 14.539 45.0748 14.1794 45.0748H11.8143L12.002 45.4967C13.3179 48.4547 15.1049 50.7247 17.5049 52.3916C19.9021 54.0567 22.8929 55.1076 26.5981 55.6579L26.9214 55.7059L28.315 33.2154H25.2653C24.7192 33.2154 24.2763 32.7726 24.2763 32.2264V21.9139C24.2763 21.3676 24.7192 20.9248 25.2653 20.9248H29.1233L29.3873 16.9343L29.2054 16.8462C26.2211 15.4009 24.2763 12.3653 24.2763 9.02324C24.2763 4.2134 28.1899 0.299805 32.9997 0.299805C37.8096 0.299805 41.7232 4.2134 41.7232 9.02324C41.7232 12.3653 39.7783 15.4009 36.794 16.8462L36.6121 16.9343L36.8761 20.9248H40.7341C41.2802 20.9248 41.7232 21.3676 41.7232 21.9139V32.2264C41.7232 32.7726 41.2802 33.2154 40.7341 33.2154H37.6844L39.0782 55.7059L39.4014 55.6579C43.1069 55.1076 46.0976 54.0534 48.4949 52.385C50.8948 50.7148 52.6817 48.4417 53.9976 45.4839L54.1853 45.0619H51.82C51.4604 45.0619 51.1293 44.8668 50.955 44.5524ZM34.5908 16.3498C34.5617 15.9082 34.8293 15.501 35.2463 15.3526C37.9358 14.3961 39.745 11.854 39.745 9.02324C39.745 5.30361 36.7193 2.27793 32.9997 2.27793C29.2801 2.27793 26.2544 5.30361 26.2544 9.02324C26.2544 11.854 28.0636 14.3961 30.7532 15.3526C31.17 15.501 31.4376 15.9082 31.4083 16.3498L31.1057 20.9248H34.8935L34.5908 16.3498ZM26.2544 22.89V31.2373H39.745V28.0592H35.5778C35.0317 28.0592 34.5888 27.6164 34.5888 27.0701C34.5888 26.5239 35.0317 26.0811 35.5778 26.0811H39.745V22.89H26.2544ZM55.6226 43.0967C55.9439 43.0967 56.2453 43.2528 56.4307 43.5153C56.616 43.7778 56.6622 44.114 56.5546 44.4169C55.0979 48.517 52.9639 51.5821 49.9896 53.7609C47.0125 55.9418 43.1694 57.2522 38.2657 57.7994C37.7032 57.8618 37.2037 57.4412 37.1688 56.8776L35.7026 33.2154H30.2967L28.8305 56.8777C28.7956 57.4421 28.2956 57.8618 27.7335 57.7994C22.8299 57.2522 18.9868 55.9418 16.0097 53.7609C13.0355 51.5821 10.9015 48.517 9.44467 44.4169C9.33707 44.114 9.38334 43.7778 9.56861 43.5153C9.75399 43.2528 10.0554 43.0967 10.3767 43.0967H12.3948L7.73409 35.6394L3.07336 43.0967H4.96261C5.40506 43.0967 5.79358 43.3905 5.9143 43.8162C9.18338 55.3595 20.576 63.7217 32.9997 63.7217C45.4234 63.7217 56.816 55.3595 60.0851 43.8163C60.2058 43.3905 60.5943 43.0967 61.0368 43.0967H62.9261L58.2653 35.6394L53.6045 43.0967H55.6226Z" fill="#111C34"></path> <path fill-rule="evenodd" clip-rule="evenodd" d="M29.4321 9.02324C29.4321 7.05656 31.0326 5.45605 32.9993 5.45605C34.966 5.45605 36.5665 7.05656 36.5665 9.02324C36.5665 10.9899 34.966 12.5904 32.9993 12.5904C31.0326 12.5904 29.4321 10.9899 29.4321 9.02324ZM31.4103 9.02324C31.4103 9.89972 32.1228 10.6123 32.9993 10.6123C33.8758 10.6123 34.5884 9.89972 34.5884 9.02324C34.5884 8.14677 33.8758 7.43418 32.9993 7.43418C32.1228 7.43418 31.4103 8.14677 31.4103 9.02324Z" fill="#111C34"></path> </svg> 