<?xml version="1.0" encoding="UTF-8"?> <svg xmlns="http://www.w3.org/2000/svg" width="88" height="68" viewBox="0 0 88 68" fill="none"> <path d="M25.0731 41.9847L24.0239 41.8348C23.7776 41.7995 23.5549 41.676 23.3951 41.491L25.0731 41.9847Z" fill="#111C34"></path> <path fill-rule="evenodd" clip-rule="evenodd" d="M23.2979 41.3581L25.7617 42.0831L33.762 43.2259V44.437L35.8054 45.0383V41.7664L72.7766 38.8086C73.1897 38.7755 73.542 38.4961 73.6683 38.1014C73.7945 37.7066 73.6697 37.2746 73.3523 37.0081L35.8054 5.46848V1.39522C35.8054 0.830983 35.3479 0.373535 34.7837 0.373535C34.2194 0.373535 33.762 0.830983 33.762 1.39522V14.8414L23.2238 40.4342C23.1037 40.7257 23.125 41.0564 23.2814 41.3302C23.2867 41.3396 23.2923 41.3489 23.2979 41.3581ZM69.8797 36.8902L35.9054 39.6081V8.35153L69.8797 36.8902ZM25.7546 39.9167L33.4999 21.0001H33.662V41.0462L25.7546 39.9167Z" fill="#111C34"></path> <path d="M33.762 45.4837V44.5413L35.8054 45.1425V45.4131L36.6286 45.3847L42.8484 47.2148L23.8914 47.8686L25.0145 53.4496H61.4262L61.7627 52.7801L63.7549 53.3663L63.7131 53.4496H86.3433C86.9074 53.4496 87.3649 53.9072 87.3649 54.4715C87.3649 55.0357 86.9075 55.4931 86.3433 55.4931H1.42158C0.85735 55.4931 0.399902 55.0357 0.399902 54.4715C0.399902 53.9072 0.85735 53.4498 1.42158 53.4498H22.9303L21.6505 47.0908C21.5914 46.7965 21.6646 46.4911 21.8507 46.2555C22.0367 46.02 22.3169 45.8784 22.6169 45.868L33.762 45.4837Z" fill="#111C34"></path> <path d="M43.1655 47.2039L36.9457 45.3738L66.5935 44.3514C66.9546 44.3396 67.2951 44.518 67.4895 44.8213C67.6841 45.1251 67.7041 45.5091 67.5421 45.8313L63.8006 53.2755L61.8083 52.6893L64.9429 46.4529L43.1655 47.2039Z" fill="#111C34"></path> <path d="M31.7516 59.4155H59.0478C59.6673 59.4155 60.1695 59.9177 60.1695 60.5372C60.1695 61.1567 59.6673 61.6589 59.0478 61.6589H31.7516C31.1321 61.6589 30.6299 61.1567 30.6299 60.5372C30.6299 59.9177 31.1321 59.4155 31.7516 59.4155Z" fill="#111C34"></path> <path d="M25.684 59.4155H13.5523C12.9329 59.4155 12.4307 59.9177 12.4307 60.5372C12.4307 61.1567 12.9329 61.6589 13.5523 61.6589H25.684C26.3035 61.6589 26.8057 61.1567 26.8057 60.5372C26.8057 59.9177 26.3036 59.4155 25.684 59.4155Z" fill="#111C34"></path> <path d="M40.8512 65.48H56.0156C56.635 65.48 57.1373 65.9822 57.1373 66.6017C57.1373 67.2211 56.635 67.7233 56.0156 67.7233H40.8512C40.2317 67.7233 39.7295 67.2211 39.7295 66.6017C39.7295 65.9822 40.2317 65.48 40.8512 65.48Z" fill="#111C34"></path> <path d="M31.7516 65.4795H34.7847C35.4041 65.4795 35.9063 65.9817 35.9063 66.6012C35.9063 67.2206 35.4041 67.7229 34.7847 67.7229H31.7516C31.1321 67.7229 30.6299 67.2206 30.6299 66.6012C30.6299 65.9817 31.1321 65.4795 31.7516 65.4795Z" fill="#111C34"></path> <path d="M65.1217 59.4199H68.1548C68.7742 59.4199 69.2765 59.9221 69.2765 60.5416C69.2765 61.1611 68.7742 61.6633 68.1548 61.6633H65.1217C64.5022 61.6633 64 61.1611 64 60.5416C64 59.9221 64.5022 59.4199 65.1217 59.4199Z" fill="#111C34"></path> </svg> 