<?xml version="1.0" encoding="UTF-8"?> <svg xmlns="http://www.w3.org/2000/svg" width="29" height="29" viewBox="0 0 29 29" fill="none"> <path fill-rule="evenodd" clip-rule="evenodd" d="M20.1792 1.44137H8.64823C4.66799 1.44137 1.44137 4.66799 1.44137 8.64823V20.1792C1.44137 24.1594 4.66799 27.3861 8.64823 27.3861H20.1792C24.1594 27.3861 27.3861 24.1594 27.3861 20.1792V8.64823C27.3861 4.66799 24.1594 1.44137 20.1792 1.44137ZM8.64823 0C3.87194 0 0 3.87194 0 8.64823V20.1792C0 24.9555 3.87194 28.8274 8.64823 28.8274H20.1792C24.9555 28.8274 28.8274 24.9555 28.8274 20.1792V8.64823C28.8274 3.87194 24.9555 0 20.1792 0H8.64823Z" fill="white"></path> <path d="M15.5493 21.9997V15.4356H17.7961L18.1301 12.8655H15.5493V11.2285C15.5493 10.4869 15.759 9.97913 16.8389 9.97913H18.2073V7.68779C17.5415 7.61746 16.8722 7.5835 16.2026 7.58607C14.2167 7.58607 12.8532 8.781 12.8532 10.9746V12.8607H10.6211V15.4308H12.8581V21.9997H15.5493Z" fill="white"></path> </svg> 