<?xml version="1.0" encoding="UTF-8"?> <svg xmlns="http://www.w3.org/2000/svg" width="62" height="62" viewBox="0 0 62 62" fill="none"> <g clip-path="url(#clip0)"> <path d="M51.1471 10.8532C50.7874 10.4936 50.2045 10.4936 49.8448 10.8531L21.4992 39.1989C21.1396 39.5585 21.1396 40.1416 21.4992 40.501C21.6789 40.6807 21.9147 40.7707 22.1504 40.7707C22.386 40.7707 22.6216 40.6808 22.8015 40.501L51.1472 12.1554C51.5067 11.7958 51.5067 11.2128 51.1471 10.8532Z" fill="black"></path> <path d="M61.7781 8.46827C61.0736 4.24053 57.7598 0.926676 53.5321 0.222152C50.5429 -0.275785 47.4064 0.0660624 44.2098 1.23886C43.3999 1.53602 42.611 1.87968 41.8447 2.26525C41.8114 2.28002 41.7789 2.29649 41.7471 2.31538C36.718 4.8753 32.6965 9.27887 30.5083 14.719C30.4467 14.8722 30.3867 15.025 30.329 15.1771C30.2482 14.5589 30.1798 13.8912 30.1375 13.1966C30.1196 12.9025 29.9781 12.6225 29.7331 12.4589C29.3516 12.2041 28.8603 12.267 28.556 12.5804C26.8646 14.3217 25.363 16.0615 24.0231 17.7884C23.9916 17.823 23.9628 17.8605 23.9365 17.9005C16.9866 26.9006 14.4337 35.5359 12.4842 42.1329C11.0589 46.9559 9.93314 50.7655 7.686 53.0126C7.68588 53.0127 7.68576 53.0128 7.68564 53.013L0.269736 60.4283C-0.0899121 60.7879 -0.0899121 61.371 0.269736 61.7304C0.449439 61.9101 0.685209 62.0001 0.920857 62.0001C1.15651 62.0001 1.39215 61.9102 1.57198 61.7304L8.98885 54.3134C11.2361 52.067 15.0454 50.9412 19.8679 49.5161C24.7011 48.0878 30.7145 46.3107 37.074 42.731C37.3723 42.5632 37.5748 42.251 37.5728 41.9088C37.5702 41.4719 37.2664 41.1051 36.8514 41.0131C35.5933 40.7337 34.5201 40.4192 33.6291 40.1124C34.5114 39.9819 35.5325 39.7837 36.6843 39.4862C43.3821 37.7561 49.3539 33.9908 53.9541 28.5972C54.4771 27.984 55.0028 27.3476 55.5165 26.7055C55.9561 26.1558 56.3786 25.6013 56.7732 25.0569C57.0702 24.6469 57.0139 24.0608 56.612 23.753C56.1985 23.4362 55.6082 23.5248 55.305 23.9443C54.9213 24.4755 54.5085 25.0175 54.0782 25.5552C53.141 26.7263 51.953 27.6743 50.6013 28.3246C43.9502 31.524 38.3659 32.3845 38.3042 32.3936C37.8013 32.4682 37.4541 32.9362 37.5285 33.4391C37.5962 33.8966 37.9892 34.2254 38.4382 34.2254C38.483 34.2254 38.5285 34.2221 38.574 34.2153C38.8031 34.1814 43.1333 33.5185 48.7961 31.1554C45.1317 34.2713 40.8613 36.5052 36.2236 37.7031C32.1917 38.7445 29.9275 38.4715 29.9088 38.4691C29.4847 38.4114 29.0773 38.6527 28.9243 39.0521C28.7712 39.4513 28.9134 39.9035 29.2672 40.1435C29.3462 40.1971 30.9233 41.2499 34.143 42.2126C28.7081 44.9832 23.5682 46.5022 19.3456 47.7501C17.3174 48.3495 15.46 48.8987 13.7957 49.5066L19.8546 43.4477C20.2208 43.0815 20.2141 42.4834 19.8342 42.1258C19.4672 41.7802 18.8815 41.8164 18.525 42.1729L12.4934 48.2045C13.1013 46.5403 13.6504 44.6829 14.2496 42.6547C15.4314 38.6562 16.7706 34.1243 19.1087 29.2293C19.7603 27.8652 20.4608 26.5393 21.2095 25.2456C20.1854 28.5839 19.6623 31.3384 19.6554 33.4474C19.6539 33.9221 19.9914 34.3466 20.4626 34.4028C21.0218 34.4696 21.4969 34.0347 21.4969 33.4888C21.4969 30.4353 22.7564 26.2118 23.8705 23.0735C24.8802 20.2291 26.4278 17.6023 28.4593 15.37C28.4698 15.3585 28.4803 15.3468 28.491 15.3353C28.7838 17.6294 29.2406 19.2845 29.265 19.3724C29.3803 19.7857 29.7659 20.0636 30.1944 20.0447C30.623 20.0249 30.9812 19.7117 31.0579 19.2897C31.2789 18.0742 31.6686 16.7677 32.2162 15.4065C33.4807 12.2627 35.4062 9.49539 37.8047 7.28543C36.1752 10.0087 35.3146 12.7348 35.3083 15.2304C35.3071 15.6999 35.6502 16.1166 36.1163 16.1719C36.6752 16.2384 37.1499 15.8034 37.1499 15.2579C37.1499 11.348 39.5746 7.65355 41.2617 5.55633C42.1971 4.39359 43.4217 3.49144 44.8221 2.97582C44.8292 2.97328 44.8363 2.9705 44.8434 2.96795C47.7367 1.90645 50.558 1.5939 53.2286 2.03892C56.6802 2.61412 59.3856 5.31959 59.9608 8.77113C60.6086 12.6584 59.6505 16.8327 57.113 21.1783C56.8348 21.6547 57.0327 22.2777 57.5616 22.496C57.9905 22.6731 58.482 22.4864 58.7156 22.0856C61.4672 17.366 62.4973 12.7847 61.7781 8.46827Z" fill="black"></path> </g> <defs> <clipPath id="clip0"> <rect width="62" height="62" fill="white"></rect> </clipPath> </defs> </svg> 