<?xml version="1.0" encoding="UTF-8"?> <svg xmlns="http://www.w3.org/2000/svg" width="70" height="70" viewBox="0 0 70 70" fill="none"> <path fill-rule="evenodd" clip-rule="evenodd" d="M36.1074 23.6922V29.7483L36.397 29.7151C39.4591 29.3645 42.2872 27.8698 44.31 25.4941C44.7065 25.0285 45.4054 24.9724 45.8707 25.3687C46.3364 25.7653 46.3924 26.464 45.9958 26.9296C43.5393 29.8149 40.0771 31.5991 36.3432 31.9462L36.1073 31.9682V35.0042C36.1073 35.6155 35.6115 36.1113 35.0001 36.1113C34.3887 36.1113 33.8929 35.6155 33.8929 35.0042V31.9682L33.657 31.9462C29.923 31.5992 26.4609 29.815 24.0043 26.9296C23.608 26.464 23.6642 25.7651 24.1297 25.3687C24.5952 24.9723 25.2938 25.0284 25.6905 25.4941C27.7132 27.8698 30.5415 29.3645 33.6035 29.7151L33.893 29.7483V23.6922L33.6981 23.6418C31.4537 23.062 29.7915 21.0198 29.7915 18.5979C29.7915 15.726 32.1284 13.3892 35.0002 13.3892C37.8721 13.3892 40.209 15.726 40.209 18.5979C40.209 21.0198 38.5467 23.062 36.3024 23.6418L36.1074 23.6922ZM35.0004 15.6035C33.349 15.6035 32.006 16.9466 32.006 18.5979C32.006 20.2494 33.349 21.5923 35.0004 21.5923C36.6517 21.5923 37.9947 20.2492 37.9947 18.5979C37.9947 16.9466 36.6517 15.6035 35.0004 15.6035Z" fill="black"></path> <path fill-rule="evenodd" clip-rule="evenodd" d="M9.28369 51.4136V46.1161L9.13779 46.0449C3.27337 43.1806 0.260254 39.3661 0.260254 35.0046C0.260254 29.5747 4.21504 22.6737 10.6578 17.0196C17.4279 11.0785 26.1317 7.2373 35.0003 7.2373C43.878 7.2373 52.5806 11.0856 59.3427 17.0198C65.7855 22.6737 69.7402 29.5747 69.7402 35.0046C69.7402 39.3661 66.7271 43.1806 60.8627 46.0449L60.7168 46.1161V51.4136C60.7168 55.7115 57.8254 59.4342 53.6876 60.4695C47.5759 61.9988 41.2872 62.7638 35.0003 62.7638C28.712 62.7638 22.4261 61.9991 16.3128 60.4695C12.1751 59.4342 9.28369 55.7115 9.28369 51.4136ZM28.8479 50.4673H11.4981V51.4136C11.4981 54.6904 13.6976 57.5325 16.8502 58.3213C22.7873 59.8069 28.8939 60.5497 35.0003 60.5497C41.1066 60.5497 47.2131 59.8069 53.1502 58.3212C56.3029 57.5325 58.5024 54.6904 58.5024 51.4136V50.4673H41.1526C40.5412 50.4673 40.0454 49.9715 40.0454 49.3601C40.0454 48.7488 40.5412 48.2529 41.1526 48.2529H58.5024V42.2642H11.4981V48.2529H28.8479C29.4593 48.2529 29.9551 48.7488 29.9551 49.3601C29.9551 49.9715 29.4593 50.4673 28.8479 50.4673ZM60.7168 41.157V43.6389L61.1032 43.4241C64.3109 41.6406 67.5259 38.8912 67.5259 35.0046C67.5259 32.5901 66.5651 29.7858 64.8886 26.9567C63.2099 24.1238 60.8027 21.2472 57.8821 18.6842C51.2024 12.8221 42.8655 9.45168 35.0003 9.45168C27.135 9.45168 18.7981 12.8222 12.1184 18.6842C9.19784 21.2471 6.79059 24.1237 5.11189 26.9566C3.43543 29.7857 2.47463 32.59 2.47463 35.0046C2.47463 38.8911 5.68961 41.6404 8.89735 43.4239L9.28369 43.6387V41.157C9.28369 40.5456 9.77951 40.0498 10.3909 40.0498H59.6096C60.221 40.0498 60.7168 40.5456 60.7168 41.157Z" fill="black"></path> <path d="M35 50.7271C35.7551 50.7271 36.3672 50.1149 36.3672 49.3599C36.3672 48.6048 35.7551 47.9927 35 47.9927C34.2449 47.9927 33.6328 48.6048 33.6328 49.3599C33.6328 50.1149 34.2449 50.7271 35 50.7271Z" fill="black"></path> </svg> 