<?xml version="1.0" encoding="UTF-8"?> <svg xmlns="http://www.w3.org/2000/svg" width="70" height="70" viewBox="0 0 70 70" fill="none"> <path d="M65.0806 7.0957H54.8066V4.16309C54.8066 2.9707 53.8364 2 52.6436 2H17.3564C16.1636 2 15.1934 2.9707 15.1934 4.16309V7.0957H4.91943C4.36719 7.0957 3.91943 7.54297 3.91943 8.0957V10.6201C3.91943 18.6816 7.84863 26.2676 14.4297 30.9131L15.6167 31.751C15.7726 31.8605 15.9496 31.9119 16.1269 31.9236C17.9586 37.6747 22.3553 42.2764 27.9619 44.418V49.5098H20.3818C19.8296 49.5098 19.3818 49.957 19.3818 50.5098V57.3291H14.9077C14.3555 57.3291 13.9077 57.7764 13.9077 58.3291V67C13.9077 67.5527 14.3555 68 14.9077 68H55.0923C55.6445 68 56.0923 67.5527 56.0923 67V58.3291C56.0923 57.7764 55.6445 57.3291 55.0923 57.3291H50.6182V50.5098C50.6182 49.957 50.1704 49.5098 49.6182 49.5098H42.0381V44.418C47.6447 42.2764 52.0414 37.6747 53.8731 31.9236C54.0504 31.9119 54.2274 31.8605 54.3833 31.751L55.5703 30.9131C62.1514 26.2676 66.0806 18.6816 66.0806 10.6201V8.0957C66.0806 7.54297 65.6328 7.0957 65.0806 7.0957ZM5.91943 10.6201V9.0957H15.1934V25.9268C15.1934 27.0465 15.309 28.1376 15.4884 29.2072C9.49542 24.9308 5.91943 17.9926 5.91943 10.6201ZM54.0923 66H15.9077V59.3291H20.3818H49.6182H54.0923V66ZM48.6182 57.3291H21.3818V51.5098H48.6182V57.3291ZM40.0381 49.5098H29.9619V45.0593C31.5738 45.4844 33.2565 45.7334 35 45.7334C36.7435 45.7334 38.4262 45.4844 40.0381 45.0593V49.5098ZM52.8066 25.9268C52.8066 33.7661 47.708 40.425 40.6575 42.7964C40.6531 42.7983 40.6486 42.7995 40.6442 42.8013C38.8681 43.3972 36.9742 43.7334 35 43.7334C33.0258 43.7334 31.1319 43.3972 29.3558 42.8013C29.3514 42.7995 29.3469 42.7983 29.3425 42.7964C22.292 40.425 17.1934 33.7661 17.1934 25.9268V4.16309C17.1934 4.07324 17.2666 4 17.3564 4H52.6436C52.7334 4 52.8066 4.07324 52.8066 4.16309V25.9268ZM64.0806 10.6201C64.0806 17.9926 60.5046 24.9308 54.5116 29.2072C54.691 28.1376 54.8066 27.0465 54.8066 25.9268V9.0957H64.0806V10.6201Z" fill="black"></path> <path d="M45.5929 16.6758L38.8932 15.7012L35.8966 9.63086C35.5597 8.94727 34.4406 8.94727 34.1037 9.63086L31.1071 15.7012L24.4074 16.6758C24.0309 16.7305 23.7179 16.9941 23.6003 17.3564C23.4826 17.7178 23.5807 18.1152 23.8537 18.3809L28.7013 23.1064L27.5568 29.7793C27.4928 30.1543 27.6471 30.5332 27.9547 30.7568C28.2638 30.9814 28.672 31.0117 29.008 30.833L35.0002 27.6826L40.9923 30.833C41.1388 30.9102 41.2985 30.9482 41.4577 30.9482C41.6647 30.9482 41.8713 30.8838 42.0456 30.7568C42.3532 30.5332 42.5075 30.1543 42.4435 29.7793L41.299 23.1064L46.1466 18.3809C46.4196 18.1152 46.5177 17.7178 46.4001 17.3564C46.2824 16.9941 45.9694 16.7305 45.5929 16.6758ZM39.527 22.041C39.2912 22.2705 39.1838 22.6016 39.2389 22.9258L40.1296 28.1201L35.4655 25.668C35.32 25.5908 35.1598 25.5527 35.0002 25.5527C34.8405 25.5527 34.6803 25.5908 34.5348 25.668L29.8708 28.1201L30.7614 22.9258C30.8166 22.6016 30.7091 22.2705 30.4733 22.041L26.7004 18.3633L31.9152 17.6045C32.2409 17.5576 32.5221 17.3525 32.6676 17.0576L35.0002 12.333L37.3327 17.0576C37.4782 17.3525 37.7594 17.5576 38.0851 17.6045L43.3 18.3633L39.527 22.041Z" fill="black"></path> </svg> 