<?xml version="1.0" encoding="UTF-8"?> <svg xmlns="http://www.w3.org/2000/svg" width="49" height="50" viewBox="0 0 49 50" fill="none"> <rect width="49" height="50" rx="2" fill="#51ADF0"></rect> <path d="M24.5 50C38.031 50 49 38.8071 49 25C49 11.1929 38.031 0 24.5 0C10.969 0 0 11.1929 0 25C0 38.8071 10.969 50 24.5 50Z" fill="#51ADF0"></path> <path d="M13.7345 22.8408L33.9635 14.7542C34.9024 14.4026 35.7224 14.9917 35.4182 16.4637L35.42 16.4618L31.9756 33.2858C31.7203 34.4786 31.0367 34.7686 30.0803 34.2067L24.8351 30.1987L22.3052 32.7257C22.0254 33.0157 21.7894 33.2604 21.2474 33.2604L21.6198 27.7262L31.3409 18.6208C31.764 18.2347 31.2465 18.0172 30.6888 18.4015L18.6755 26.2433L13.4967 24.5684C12.3725 24.1986 12.348 23.4028 13.7345 22.8408Z" fill="white"></path> </svg> 