<?xml version="1.0" encoding="UTF-8"?> <svg xmlns="http://www.w3.org/2000/svg" width="49" height="50" viewBox="0 0 49 50" fill="none"> <rect width="49" height="50" rx="2" fill="#1E5ABA"></rect> <path d="M49 25C49 38.8073 38.0312 50 24.5 50C10.9688 50 0 38.8073 0 25C0 11.1927 10.9688 0 24.5 0C38.0312 0 49 11.1927 49 25Z" fill="#1E5ABA"></path> <path d="M24.5001 11.207C17.1381 11.207 11.1484 16.9291 11.1484 23.9622C11.1484 27.5854 12.7544 31.0053 15.5765 33.4362V37.1564C15.5765 37.5912 15.799 37.9949 16.1635 38.2206C16.3576 38.3409 16.5772 38.4015 16.7971 38.4015C16.9897 38.4015 17.1829 38.3548 17.3595 38.2611L21.0749 36.2909C22.1893 36.5737 23.339 36.717 24.5001 36.717C27.0832 36.717 29.5914 36.0088 31.7532 34.6694C32.3293 34.312 32.5126 33.5465 32.1628 32.9586C31.8129 32.3707 31.0627 32.184 30.4865 32.5406C28.7064 33.6437 26.6365 34.2271 24.5001 34.2271C23.3997 34.2271 22.3126 34.0721 21.2687 33.7666C20.9687 33.6788 20.6468 33.7115 20.3698 33.8584L18.017 35.1061V32.8409C18.017 32.4544 17.8413 32.0899 17.541 31.8542C15.0293 29.8821 13.5889 27.0053 13.5889 23.9622C13.5889 18.302 18.4835 13.6973 24.4998 13.6973C30.5164 13.6973 35.411 18.3023 35.411 23.9622C35.411 25.8701 34.8489 27.7329 33.7856 29.349C33.4097 29.92 33.5587 30.6934 34.1183 31.0766C34.6776 31.4599 35.4358 31.3081 35.8117 30.7371C37.146 28.7089 37.8515 26.3665 37.8515 23.9622C37.8518 16.9288 31.8622 11.207 24.5001 11.207Z" fill="white"></path> <path d="M30.1354 20.4703L26.0095 23.3831L23.8354 21.1626C23.6066 20.9288 23.2958 20.7975 22.9723 20.7975C22.965 20.7975 22.9577 20.7978 22.9504 20.7978C22.6189 20.804 22.3043 20.9473 22.0784 21.195L17.3824 26.3516C16.9356 26.8425 16.9493 27.6062 17.4136 28.0796L17.466 28.1334C17.7024 28.3746 18.0148 28.4982 18.3294 28.4982C18.5772 28.4982 18.8267 28.4213 19.0405 28.2647L23.0644 25.3169L25.2682 27.5407C25.5014 27.7757 25.8138 27.9042 26.1452 27.9003C26.4728 27.8951 26.7849 27.7556 27.0108 27.5131L31.7669 22.4058C32.2228 21.9162 32.213 21.1451 31.7449 20.6675L31.6922 20.614C31.2753 20.1882 30.62 20.1279 30.1354 20.4703Z" fill="white"></path> </svg> 